<svg xmlns="http://www.w3.org/2000/svg" viewBox="0 0 64 64" id="to-do-list"><rect width="46" height="52" x="7" y="9" fill="#c0ab91"></rect><rect width="40" height="46" x="10" y="12" fill="#bdfdff"></rect><path fill="#e0e0e2" d="M40,9v6a2.006,2.006,0,0,1-2,2H22a2.006,2.006,0,0,1-2-2V9h4A6,6,0,0,1,36,9Z"></path><circle cx="30" cy="7" r="2" fill="#2d2d30"></circle><rect width="5" height="2" x="21" y="10" fill="#fff" rx="1"></rect><rect width="8" height="8" x="16" y="23" fill="#00e7f0"></rect><rect width="8" height="8" x="16" y="36" fill="#00e7f0"></rect><path fill="#ff5023" d="M18.707 25.293l-1.414 1.414 2 2a1 1 0 0 0 1.288.107l7-5-1.162-1.628-6.311 4.508zM20.108 39.694l-1.4-1.4-1.414 1.414 2 2a1 1 0 0 0 1.288.107l7-5-1.162-1.628z"></path><rect width="2" height="2" x="33" y="22" fill="#1a6fb0"></rect><rect width="8" height="2" x="37" y="22" fill="#1a6fb0"></rect><rect width="12" height="2" x="33" y="26" fill="#1a6fb0"></rect><circle cx="43" cy="47" r="14" fill="#ffde55"></circle><circle cx="43" cy="47" r="11" fill="#fff"></circle><path fill="#3e3d42" d="M43,35A12,12,0,1,0,55,47,12.013,12.013,0,0,0,43,35Zm1,21.949V56H42v.949A10.015,10.015,0,0,1,33.051,48H34V46h-.949A10.015,10.015,0,0,1,42,37.051V38h2v-.949A10.015,10.015,0,0,1,52.949,46H52v2h.949A10.015,10.015,0,0,1,44,56.949Z"></path><path fill="#3e3d42" d="M45,47a1.993,1.993,0,0,0-1-1.722V40H42v5.278A1.994,1.994,0,0,0,43,49a1.96,1.96,0,0,0,.511-.075l2.782,2.782,1.414-1.414-2.782-2.782A1.96,1.96,0,0,0,45,47Z"></path></svg>